<svg width="520" height="150" viewBox="0 0 520 150" fill="none" xmlns="http://www.w3.org/2000/svg">
  <defs>
    <linearGradient id="bg" x1="28" y1="18" x2="491" y2="134" gradientUnits="userSpaceOnUse">
      <stop stop-color="#183247"/>
      <stop offset="0.46" stop-color="#10202E"/>
      <stop offset="1" stop-color="#081117"/>
    </linearGradient>
    <linearGradient id="panelGlow" x1="41" y1="33" x2="329" y2="125" gradientUnits="userSpaceOnUse">
      <stop stop-color="#69E0FF" stop-opacity="0.18"/>
      <stop offset="1" stop-color="#69E0FF" stop-opacity="0"/>
    </linearGradient>
    <linearGradient id="weaponBody" x1="86" y1="48" x2="320" y2="101" gradientUnits="userSpaceOnUse">
      <stop stop-color="#E7EEF4"/>
      <stop offset="0.38" stop-color="#AAB8C3"/>
      <stop offset="0.72" stop-color="#627685"/>
      <stop offset="1" stop-color="#2A3642"/>
    </linearGradient>
    <linearGradient id="weaponDark" x1="90" y1="61" x2="274" y2="113" gradientUnits="userSpaceOnUse">
      <stop stop-color="#32404C"/>
      <stop offset="1" stop-color="#121A20"/>
    </linearGradient>
    <linearGradient id="optic" x1="179" y1="38" x2="258" y2="60" gradientUnits="userSpaceOnUse">
      <stop stop-color="#B1F5FF"/>
      <stop offset="1" stop-color="#58D8F5"/>
    </linearGradient>
    <linearGradient id="accent" x1="328" y1="42" x2="481" y2="79" gradientUnits="userSpaceOnUse">
      <stop stop-color="#67F2AA"/>
      <stop offset="1" stop-color="#4EDBFF"/>
    </linearGradient>
    <pattern id="microGrid" width="10" height="10" patternUnits="userSpaceOnUse">
      <path d="M10 0H0V10" stroke="#D7F7FF" stroke-opacity="0.08" stroke-width="1"/>
    </pattern>
    <filter id="softBlur" x="28" y="24" width="302" height="105" filterUnits="userSpaceOnUse" color-interpolation-filters="sRGB">
      <feGaussianBlur stdDeviation="14"/>
    </filter>
  </defs>

  <rect x="16" y="16" width="488" height="118" rx="24" fill="url(#bg)" stroke="#5FE0FF" stroke-width="2"/>
  <rect x="16" y="16" width="488" height="118" rx="24" fill="url(#microGrid)"/>
  <path d="M36 39H355" stroke="#7FE7FF" stroke-opacity="0.18" stroke-width="2"/>
  <path d="M36 111H489" stroke="#7FE7FF" stroke-opacity="0.08" stroke-width="2"/>
  <path d="M353 17L276 134" stroke="#7EE8FF" stroke-opacity="0.08" stroke-width="18"/>
  <path d="M420 18L349 134" stroke="#C8F7FF" stroke-opacity="0.05" stroke-width="28"/>

  <g filter="url(#softBlur)">
    <ellipse cx="186" cy="84" rx="106" ry="28" fill="#66E5FF" fill-opacity="0.24"/>
  </g>
  <rect x="40" y="32" width="292" height="86" rx="20" fill="url(#panelGlow)" stroke="#72E9FF" stroke-opacity="0.12"/>

  <g transform="translate(26 8) scale(0.66)">
    <ellipse cx="251" cy="208" rx="168" ry="15" fill="#0D1522" opacity="0.22"/>
    <path d="M74 111C74 93 89 78 107 78H297C308 78 319 82 327 89L360 117C367 123 376 126 385 126H414C431 126 444 139 444 156C444 173 431 186 414 186H389C378 186 368 190 359 197L331 220C323 226 312 229 301 229H213C193 229 175 216 170 197L159 163C155 151 145 141 133 138L95 131C83 129 74 121 74 111Z" fill="url(#weaponBody)"/>
    <path d="M117 81H289C302 81 314 85 322 92L340 106H124C108 106 95 97 95 86C95 83 101 81 117 81Z" fill="#F7FAFF" opacity="0.46"/>
    <rect x="164" y="58" width="134" height="28" rx="14" fill="url(#optic)"/>
    <rect x="200" y="45" width="56" height="17" rx="8.5" fill="#7D8794"/>
    <rect x="188" y="86" width="18" height="22" rx="8" fill="#606B78"/>
    <rect x="257" y="86" width="18" height="22" rx="8" fill="#606B78"/>
    <path d="M336 127H481" stroke="url(#weaponBody)" stroke-width="18" stroke-linecap="round"/>
    <path d="M430 126H481" stroke="#E9EEF7" stroke-width="6" stroke-linecap="round" opacity="0.72"/>
    <path d="M163 164L148 228" stroke="url(#weaponDark)" stroke-width="30" stroke-linecap="round"/>
    <path d="M146 228H182" stroke="#C4CED9" stroke-width="10" stroke-linecap="round" opacity="0.88"/>
    <path d="M214 132C214 120 224 110 236 110H273C287 110 298 121 298 135V152C298 167 286 179 271 179H236C224 179 214 169 214 157V132Z" fill="#3E454F" opacity="0.9"/>
    <path d="M280 145L260 206C256 220 243 229 229 229H205C191 229 181 216 185 203L194 172C197 158 209 148 223 148L280 145Z" fill="url(#weaponDark)"/>
    <path d="M126 145C126 130 138 118 153 118H215C224 118 232 122 238 128L255 146C261 152 269 155 277 155H304C316 155 326 165 326 177C326 189 316 199 304 199H285C276 199 267 202 260 208L246 219C239 225 230 229 221 229H198C185 229 173 221 169 209L162 190C159 182 152 176 144 174L130 171C127 170 126 169 126 165V145Z" fill="#FFFFFF" opacity="0.22"/>
    <circle cx="246" cy="125" r="12" fill="#E94D62"/>
    <circle cx="246" cy="125" r="5" fill="#FFD8E2"/>
    <path d="M92 109C109 95 142 90 177 95" stroke="#F6FBFF" stroke-width="7" stroke-linecap="round" opacity="0.46"/>
  </g>

  <g>
    <rect x="364" y="30" width="122" height="44" rx="16" fill="url(#accent)"/>
    <path d="M385 52L396 63L415 42" stroke="#0B5C43" stroke-width="6" stroke-linecap="round" stroke-linejoin="round"/>
    <text x="433" y="57" fill="#0B5C43" font-family="Segoe UI, Arial" font-size="18" font-weight="800" text-anchor="middle">EQUIPPED</text>
  </g>

  <g opacity="0.86">
    <text x="365" y="96" fill="#DFF8FF" font-family="Segoe UI, Arial" font-size="12" font-weight="700" letter-spacing="1.6">MARKSMAN PLATFORM</text>
    <text x="365" y="113" fill="#79E6FF" font-family="Segoe UI, Arial" font-size="11" font-weight="600" letter-spacing="1.1">LONG BARREL · STABLE OPTIC · TUNED RECOIL</text>
  </g>
</svg>
