<svg width="520" height="150" viewBox="0 0 520 150" fill="none" xmlns="http://www.w3.org/2000/svg">
  <defs>
    <linearGradient id="bg" x1="26" y1="18" x2="491" y2="134" gradientUnits="userSpaceOnUse">
      <stop stop-color="#16222C"/>
      <stop offset="0.48" stop-color="#101820"/>
      <stop offset="1" stop-color="#081015"/>
    </linearGradient>
    <linearGradient id="panelGlow" x1="41" y1="34" x2="328" y2="121" gradientUnits="userSpaceOnUse">
      <stop stop-color="#B8D8EA" stop-opacity="0.11"/>
      <stop offset="1" stop-color="#B8D8EA" stop-opacity="0"/>
    </linearGradient>
    <linearGradient id="weaponBody" x1="88" y1="46" x2="321" y2="101" gradientUnits="userSpaceOnUse">
      <stop stop-color="#DCE6EE"/>
      <stop offset="0.34" stop-color="#A9B8C3"/>
      <stop offset="0.7" stop-color="#5E6F7A"/>
      <stop offset="1" stop-color="#26323B"/>
    </linearGradient>
    <linearGradient id="weaponDark" x1="101" y1="57" x2="274" y2="112" gradientUnits="userSpaceOnUse">
      <stop stop-color="#2C3841"/>
      <stop offset="1" stop-color="#12191F"/>
    </linearGradient>
    <linearGradient id="optic" x1="172" y1="38" x2="250" y2="61" gradientUnits="userSpaceOnUse">
      <stop stop-color="#D9E6F1"/>
      <stop offset="1" stop-color="#7DA3BA"/>
    </linearGradient>
    <linearGradient id="badge" x1="368" y1="33" x2="482" y2="70" gradientUnits="userSpaceOnUse">
      <stop stop-color="#2B3F4E"/>
      <stop offset="1" stop-color="#1A2730"/>
    </linearGradient>
    <pattern id="microGrid" width="10" height="10" patternUnits="userSpaceOnUse">
      <path d="M10 0H0V10" stroke="#DFF2FF" stroke-opacity="0.06" stroke-width="1"/>
    </pattern>
  </defs>

  <rect x="16" y="16" width="488" height="118" rx="24" fill="url(#bg)" stroke="#617684" stroke-width="2"/>
  <rect x="16" y="16" width="488" height="118" rx="24" fill="url(#microGrid)"/>
  <path d="M36 40H354" stroke="#C9E6F8" stroke-opacity="0.12" stroke-width="2"/>
  <path d="M36 111H489" stroke="#C9E6F8" stroke-opacity="0.06" stroke-width="2"/>
  <path d="M353 17L275 134" stroke="#9CB6C9" stroke-opacity="0.06" stroke-width="18"/>
  <path d="M421 18L349 134" stroke="#E5F1F6" stroke-opacity="0.04" stroke-width="28"/>
  <rect x="40" y="32" width="292" height="86" rx="20" fill="url(#panelGlow)" stroke="#CFE8F5" stroke-opacity="0.08"/>

  <g transform="translate(22 8) scale(0.66)">
    <ellipse cx="268" cy="208" rx="170" ry="14" fill="#08111D" opacity="0.22"/>
    <path d="M78 114C78 95 93 80 112 80H311C322 80 333 84 342 91L371 115C380 123 391 127 402 127H422C440 127 454 141 454 159C454 177 440 191 422 191H397C386 191 376 195 367 201L342 219C333 226 322 230 311 230H228C207 230 189 216 184 196L174 162C170 150 160 141 148 138L98 128C87 125 78 121 78 114Z" fill="url(#weaponBody)"/>
    <path d="M121 82H304C315 82 326 86 334 92L349 104H126C112 104 101 96 101 88C101 84 107 82 121 82Z" fill="#F0FBFF" opacity="0.45"/>
    <rect x="175" y="52" width="142" height="26" rx="13" fill="url(#optic)"/>
    <rect x="212" y="39" width="68" height="15" rx="7.5" fill="#56789B"/>
    <rect x="199" y="78" width="15" height="24" rx="7.5" fill="#325E87"/>
    <rect x="275" y="78" width="15" height="24" rx="7.5" fill="#325E87"/>
    <path d="M356 127H489" stroke="url(#weaponBody)" stroke-width="14" stroke-linecap="round"/>
    <path d="M421 126H489" stroke="#EDF9FF" stroke-width="4" stroke-linecap="round" opacity="0.82"/>
    <path d="M170 170L152 230" stroke="url(#weaponDark)" stroke-width="26" stroke-linecap="round"/>
    <path d="M149 230H185" stroke="#DDF4FF" stroke-width="9" stroke-linecap="round" opacity="0.86"/>
    <path d="M211 138C211 126 220 117 232 117H281C293 117 303 127 303 139V152C303 166 292 176 278 176H233C221 176 211 167 211 155V138Z" fill="#203649" opacity="0.92"/>
    <path d="M284 150L257 212C253 223 242 230 230 230H203C188 230 178 214 183 199L193 171C197 158 208 150 222 150H284Z" fill="url(#weaponDark)"/>
    <path d="M246 111L319 111" stroke="#E0F5FF" stroke-width="5" stroke-linecap="round" opacity="0.72"/>
    <path d="M135 137C135 125 145 116 157 116H221C230 116 238 120 244 126L258 140C265 147 274 151 284 151H309C321 151 331 161 331 173C331 185 321 195 309 195H291C282 195 274 198 267 204L251 219C244 226 234 230 224 230H204C191 230 179 223 174 211L169 194C166 184 158 177 149 174L137 171C135 170 135 168 135 166V137Z" fill="#FFFFFF" opacity="0.20"/>
    <circle cx="255" cy="131" r="11" fill="#6CE3FF"/>
    <circle cx="255" cy="131" r="4.5" fill="#F4FFFF"/>
    <path d="M98 108C119 97 149 91 185 94" stroke="#E9FBFF" stroke-width="7" stroke-linecap="round" opacity="0.42"/>
  </g>

  <g>
    <rect x="368" y="31" width="114" height="40" rx="15" fill="url(#badge)" stroke="#88B4C9" stroke-opacity="0.35"/>
    <circle cx="391" cy="51" r="8" fill="#72D4FF"/>
    <path d="M407 51H453" stroke="#E2F7FF" stroke-width="6" stroke-linecap="round"/>
    <text x="425" y="59" fill="#DFF6FF" font-family="Segoe UI, Arial" font-size="16" font-weight="800" letter-spacing="1.2">UNLOCKED</text>
  </g>

  <g opacity="0.82">
    <text x="366" y="97" fill="#DDEBF3" font-family="Segoe UI, Arial" font-size="12" font-weight="700" letter-spacing="1.6">TACTICAL FRAME</text>
    <text x="366" y="113" fill="#9CC5D7" font-family="Segoe UI, Arial" font-size="11" font-weight="600" letter-spacing="1.05">SIDE PROFILE · MODULAR RAIL · READY TO EQUIP</text>
  </g>
</svg>
