<svg width="512" height="512" viewBox="0 0 512 512" fill="none" xmlns="http://www.w3.org/2000/svg">
  <rect width="512" height="512" fill="black" fill-opacity="0"/>
  <g fill="#A8C3D4" fill-opacity="0.16">
    <path d="M76 92C126 104 164 78 208 92C255 108 286 156 332 168C372 178 416 165 450 144V202C411 223 372 219 332 210C277 197 240 156 195 150C153 145 116 164 76 178V92Z"/>
    <path d="M58 250C111 234 148 270 195 286C244 302 289 301 340 282C388 264 421 234 460 238V318C422 328 388 354 340 368C283 386 239 382 188 366C140 352 102 320 58 326V250Z"/>
    <path d="M97 392C142 374 180 404 227 418C285 435 338 430 401 398L440 450C386 478 319 486 249 474C178 462 132 430 97 392Z"/>
  </g>
  <g stroke="#E7F5FF" stroke-opacity="0.16" stroke-width="5" stroke-linecap="round">
    <path d="M142 122L168 140"/>
    <path d="M258 175L282 193"/>
    <path d="M355 315L384 302"/>
    <path d="M160 336L188 352"/>
    <path d="M290 430L316 438"/>
  </g>
</svg>
