<svg width="256" height="256" viewBox="0 0 256 256" fill="none" xmlns="http://www.w3.org/2000/svg" role="img" aria-labelledby="alien-front-title alien-front-desc">
  <title id="alien-front-title">升级版外星人正面</title>
  <desc id="alien-front-desc">正面视角的软3D卡通外星人，身体直接呈现为柔软躯干，背包仅通过肩带和侧边轻微露出。</desc>
  <defs>
    <linearGradient id="headGrad" x1="72" y1="34" x2="184" y2="190" gradientUnits="userSpaceOnUse">
      <stop stop-color="#CBFF97"/>
      <stop offset="0.48" stop-color="#84DE5E"/>
      <stop offset="1" stop-color="#479C4C"/>
    </linearGradient>
    <linearGradient id="bodyGrad" x1="96" y1="142" x2="162" y2="216" gradientUnits="userSpaceOnUse">
      <stop stop-color="#9BF07A"/>
      <stop offset="0.56" stop-color="#68C85C"/>
      <stop offset="1" stop-color="#3E8E46"/>
    </linearGradient>
    <linearGradient id="strapGrad" x1="86" y1="124" x2="170" y2="184" gradientUnits="userSpaceOnUse">
      <stop stop-color="#225D69"/>
      <stop offset="1" stop-color="#173E47"/>
    </linearGradient>
    <linearGradient id="packPeekGrad" x1="82" y1="132" x2="176" y2="194" gradientUnits="userSpaceOnUse">
      <stop stop-color="#3F94A2"/>
      <stop offset="1" stop-color="#205A66"/>
    </linearGradient>
    <radialGradient id="shine" cx="0" cy="0" r="1" gradientUnits="userSpaceOnUse" gradientTransform="translate(108 76) rotate(50) scale(62 42)">
      <stop stop-color="white" stop-opacity="0.76"/>
      <stop offset="1" stop-color="white" stop-opacity="0"/>
    </radialGradient>
    <radialGradient id="torsoGlow" cx="0" cy="0" r="1" gradientUnits="userSpaceOnUse" gradientTransform="translate(126 155) rotate(90) scale(54 39)">
      <stop stop-color="white" stop-opacity="0.18"/>
      <stop offset="1" stop-color="white" stop-opacity="0"/>
    </radialGradient>
    <filter id="softShadow" x="18" y="14" width="220" height="232" filterUnits="userSpaceOnUse" color-interpolation-filters="sRGB">
      <feDropShadow dx="0" dy="8" stdDeviation="10" flood-color="#16351E" flood-opacity="0.22"/>
    </filter>
  </defs>

  <ellipse cx="128" cy="228" rx="48" ry="12" fill="#1E3D2C" opacity="0.14"/>

  <g filter="url(#softShadow)">
    <path d="M110 43C117 25 139 25 146 43L152 60C154 67 159 73 166 77L171 80C176 83 178 90 175 95C172 100 165 103 158 101L149 98" stroke="#62B95B" stroke-width="10" stroke-linecap="round"/>
    <path d="M146 43C139 25 117 25 110 43L104 60C102 67 97 73 90 77L85 80C80 83 78 90 81 95C84 100 91 103 98 101L107 98" stroke="#62B95B" stroke-width="10" stroke-linecap="round"/>
    <circle cx="176" cy="84" r="7" fill="#EE635D"/>
    <circle cx="80" cy="84" r="7" fill="#EE635D"/>

    <path d="M93 141C93 132 100 124 109 124H114C120 124 124 127 126 132V184C123 187 118 189 112 189H109C100 189 93 181 93 172V141Z" fill="url(#packPeekGrad)" opacity="0.92"/>
    <path d="M142 132C144 127 148 124 154 124H159C168 124 175 132 175 141V172C175 181 168 189 159 189H156C150 189 145 187 142 184V132Z" fill="url(#packPeekGrad)" opacity="0.92"/>
    <path d="M108 133C104 143 104 158 108 174" stroke="url(#strapGrad)" stroke-width="8" stroke-linecap="round" opacity="0.9"/>
    <path d="M148 133C152 143 152 158 148 174" stroke="url(#strapGrad)" stroke-width="8" stroke-linecap="round" opacity="0.9"/>

    <path d="M128 34C170 34 198 69 191 109C186 138 163 151 149 168C141 177 135 194 128 194C121 194 115 177 107 168C93 151 70 138 65 109C58 69 86 34 128 34Z" fill="url(#headGrad)"/>
    <path d="M88 82C101 59 134 48 162 60" stroke="#E3FFC1" stroke-width="8" stroke-linecap="round" opacity="0.55"/>
    <path d="M128 34C170 34 198 69 191 109C186 138 163 151 149 168C141 177 135 194 128 194C121 194 115 177 107 168C93 151 70 138 65 109C58 69 86 34 128 34Z" fill="url(#shine)"/>

    <ellipse cx="103" cy="109" rx="18" ry="26" fill="#151515"/>
    <ellipse cx="153" cy="109" rx="18" ry="26" fill="#151515"/>
    <ellipse cx="109" cy="99" rx="5" ry="7" fill="white" opacity="0.9"/>
    <ellipse cx="159" cy="99" rx="5" ry="7" fill="white" opacity="0.9"/>
    <path d="M116 142C123 147 133 147 140 142" stroke="#2F6638" stroke-width="5" stroke-linecap="round" opacity="0.68"/>

    <path d="M97 150C97 138 106 128 118 128H138C150 128 159 138 159 150V178C159 193 147 205 132 205H124C109 205 97 193 97 178V150Z" fill="url(#bodyGrad)"/>
    <path d="M102 151C106 142 116 136 128 136C140 136 150 142 154 151V176C154 188 145 198 132 199H124C111 198 102 188 102 176V151Z" fill="url(#torsoGlow)"/>
    <path d="M114 142C118 138 122 136 128 136C134 136 138 138 142 142" stroke="#E8FFD4" stroke-width="3.5" stroke-linecap="round" opacity="0.74"/>
    <path d="M116 154C120 151 123 150 128 150C133 150 136 151 140 154" stroke="#C9F2B2" stroke-width="3.2" stroke-linecap="round" opacity="0.52"/>
    <path d="M118 167C121 164 124 163 128 163C132 163 135 164 138 167" stroke="#B8E699" stroke-width="3" stroke-linecap="round" opacity="0.46"/>
    <path d="M111 153C112 166 112 179 111 191" stroke="#326A39" stroke-width="2.5" stroke-linecap="round" opacity="0.16"/>
    <path d="M145 153C144 166 144 179 145 191" stroke="#326A39" stroke-width="2.5" stroke-linecap="round" opacity="0.16"/>
    <path d="M118 180C122 184 134 184 138 180" stroke="#DDF9C8" stroke-width="4" stroke-linecap="round" opacity="0.66"/>

    <path d="M97 154C86 161 82 173 80 192" stroke="#6ABF64" stroke-width="10" stroke-linecap="round"/>
    <path d="M159 154C170 161 174 173 176 192" stroke="#6ABF64" stroke-width="10" stroke-linecap="round"/>
    <path d="M119 205C114 214 112 225 111 235" stroke="#6ABF64" stroke-width="10" stroke-linecap="round"/>
    <path d="M137 205C142 214 144 225 145 235" stroke="#6ABF64" stroke-width="10" stroke-linecap="round"/>
    <ellipse cx="77" cy="196" rx="10" ry="6" fill="#6ABF64"/>
    <ellipse cx="179" cy="196" rx="10" ry="6" fill="#6ABF64"/>
    <ellipse cx="108" cy="237" rx="12" ry="7" fill="#6ABF64"/>
    <ellipse cx="148" cy="237" rx="12" ry="7" fill="#6ABF64"/>
  </g>
</svg>
