<svg width="320" height="180" viewBox="0 0 320 180" fill="none" xmlns="http://www.w3.org/2000/svg">
  <defs>
    <linearGradient id="rifleBody" x1="26" y1="44" x2="262" y2="120" gradientUnits="userSpaceOnUse">
      <stop stop-color="#73E2E5"/>
      <stop offset="0.55" stop-color="#2C9AA6"/>
      <stop offset="1" stop-color="#1F5C69"/>
    </linearGradient>
    <linearGradient id="rifleAccent" x1="96" y1="44" x2="164" y2="92" gradientUnits="userSpaceOnUse">
      <stop stop-color="#D7FF8E"/>
      <stop offset="1" stop-color="#6FC359"/>
    </linearGradient>
    <filter id="shadow" x="10" y="24" width="300" height="132" filterUnits="userSpaceOnUse" color-interpolation-filters="sRGB">
      <feDropShadow dx="0" dy="8" stdDeviation="9" flood-color="#0F2A31" flood-opacity="0.22"/>
    </filter>
  </defs>

  <ellipse cx="159" cy="146" rx="102" ry="12" fill="#11252C" opacity="0.12"/>

  <g filter="url(#shadow)">
    <path d="M31 78C31 61 45 47 62 47H205C213 47 221 50 227 55L243 68C247 72 252 74 258 74H280C289 74 296 81 296 90C296 99 289 106 280 106H255C249 106 243 108 239 112L224 125C219 130 212 133 204 133H154C146 133 138 136 132 141L118 152C113 157 107 159 100 159H84C72 159 61 150 57 139L53 130C49 121 41 114 32 110L28 108C19 104 15 93 20 84C22 80 26 78 31 78Z" fill="url(#rifleBody)"/>
    <rect x="84" y="57" width="98" height="20" rx="10" fill="url(#rifleAccent)"/>
    <rect x="215" y="83" width="63" height="12" rx="6" fill="#F8E991"/>
    <rect x="214" y="70" width="27" height="9" rx="4.5" fill="#F25C58"/>
    <circle cx="203" cy="91" r="14" fill="#F25C58"/>
    <circle cx="203" cy="91" r="6" fill="#FFD6D2"/>
    <path d="M73 48H198C209 48 219 52 226 58L232 63H79C72 63 66 59 64 53C63 50 65 48 68 48H73Z" fill="#A8F8F9" opacity="0.55"/>
    <path d="M132 133L118 155" stroke="#205D69" stroke-width="18" stroke-linecap="round"/>
    <path d="M95 132L109 154" stroke="#205D69" stroke-width="18" stroke-linecap="round"/>
    <path d="M105 104H137" stroke="#D3FCFC" stroke-width="7" stroke-linecap="round" opacity="0.8"/>
    <circle cx="118" cy="91" r="7" fill="#1E5B67"/>
  </g>
</svg>
