<svg width="220" height="170" viewBox="0 0 220 170" fill="none" xmlns="http://www.w3.org/2000/svg">
  <defs>
    <linearGradient id="frontGrad" x1="40" y1="70" x2="158" y2="136" gradientUnits="userSpaceOnUse">
      <stop stop-color="#C6FF90"/>
      <stop offset="0.55" stop-color="#6DCC5C"/>
      <stop offset="1" stop-color="#397F43"/>
    </linearGradient>
    <linearGradient id="backGrad" x1="62" y1="44" x2="147" y2="111" gradientUnits="userSpaceOnUse">
      <stop stop-color="#D9FFAB"/>
      <stop offset="1" stop-color="#6AB85B"/>
    </linearGradient>
    <filter id="shadow" x="18" y="28" width="186" height="118" filterUnits="userSpaceOnUse" color-interpolation-filters="sRGB">
      <feDropShadow dx="0" dy="8" stdDeviation="8" flood-color="#15301C" flood-opacity="0.2"/>
    </filter>
  </defs>

  <ellipse cx="111" cy="136" rx="55" ry="9" fill="#15301C" opacity="0.12"/>
  <g filter="url(#shadow)">
    <path d="M62 111C47 111 35 99 35 84C35 69 47 58 61 58C69 45 83 37 99 37C113 37 126 43 134 53C141 49 149 47 157 47C177 47 193 63 193 83C193 99 180 111 164 111H62Z" fill="url(#backGrad)"/>
    <path d="M50 128C32 128 18 115 18 98C18 83 29 70 44 68C52 56 65 49 81 49C95 49 107 55 115 64C124 53 138 47 154 47C180 47 202 68 202 94C202 113 186 128 167 128H50Z" fill="url(#frontGrad)"/>
    <path d="M64 80C90 62 122 59 156 71" stroke="#EAFFD0" stroke-width="7" stroke-linecap="round" opacity="0.55"/>
    <ellipse cx="79" cy="90" rx="12" ry="8" fill="#E5FFBF" opacity="0.5"/>
    <ellipse cx="144" cy="82" rx="10" ry="7" fill="#E5FFBF" opacity="0.45"/>
  </g>
</svg>
