<svg width="256" height="256" viewBox="0 0 256 256" fill="none" xmlns="http://www.w3.org/2000/svg" role="img" aria-labelledby="alien-front-title alien-front-desc">
  <title id="alien-front-title">球衣版外星人正面</title>
  <desc id="alien-front-desc">亮绿色泪滴形头部、黑色大眼、红球触角、蓝色球衣白色短裤的软3D卡通外星人正面视角，无背包。</desc>
  <defs>
    <linearGradient id="frontHead" x1="86" y1="36" x2="172" y2="186" gradientUnits="userSpaceOnUse">
      <stop stop-color="#D9FF8E"/>
      <stop offset="0.52" stop-color="#87E85C"/>
      <stop offset="1" stop-color="#48A53F"/>
    </linearGradient>
    <linearGradient id="frontJersey" x1="96" y1="134" x2="160" y2="206" gradientUnits="userSpaceOnUse">
      <stop stop-color="#48A8FF"/>
      <stop offset="1" stop-color="#1D62C8"/>
    </linearGradient>
    <linearGradient id="frontShorts" x1="108" y1="180" x2="150" y2="218" gradientUnits="userSpaceOnUse">
      <stop stop-color="#FFFFFF"/>
      <stop offset="1" stop-color="#DCEBFF"/>
    </linearGradient>
    <radialGradient id="frontShine" cx="0" cy="0" r="1" gradientUnits="userSpaceOnUse" gradientTransform="translate(106 74) rotate(38) scale(60 40)">
      <stop stop-color="white" stop-opacity="0.78"/>
      <stop offset="1" stop-color="white" stop-opacity="0"/>
    </radialGradient>
    <filter id="frontShadow" x="26" y="18" width="204" height="224" filterUnits="userSpaceOnUse" color-interpolation-filters="sRGB">
      <feDropShadow dx="0" dy="8" stdDeviation="10" flood-color="#17371F" flood-opacity="0.24"/>
    </filter>
  </defs>
  <ellipse cx="128" cy="229" rx="46" ry="12" fill="#15351E" opacity="0.14"/>
  <g filter="url(#frontShadow)">
    <path d="M108 45C113 31 128 28 128 28C128 28 143 31 148 45L154 60C156 67 162 73 168 77" stroke="#6BBE4D" stroke-width="9" stroke-linecap="round"/>
    <path d="M148 45C143 31 128 28 128 28C128 28 113 31 108 45L102 60C100 67 94 73 88 77" stroke="#6BBE4D" stroke-width="9" stroke-linecap="round"/>
    <circle cx="174" cy="82" r="7" fill="#F15B5B"/>
    <circle cx="82" cy="82" r="7" fill="#F15B5B"/>
    <path d="M128 34C165 34 191 61 191 97C191 129 171 148 154 164C143 175 137 194 128 194C119 194 113 175 102 164C85 148 65 129 65 97C65 61 91 34 128 34Z" fill="url(#frontHead)"/>
    <path d="M128 34C165 34 191 61 191 97C191 129 171 148 154 164C143 175 137 194 128 194C119 194 113 175 102 164C85 148 65 129 65 97C65 61 91 34 128 34Z" fill="url(#frontShine)"/>
    <path d="M89 82C102 63 129 53 157 60" stroke="#F4FFC7" stroke-width="8" stroke-linecap="round" opacity="0.55"/>
    <ellipse cx="104" cy="104" rx="17" ry="25" fill="#111111"/>
    <ellipse cx="152" cy="104" rx="17" ry="25" fill="#111111"/>
    <ellipse cx="110" cy="95" rx="4.5" ry="6.5" fill="white" opacity="0.88"/>
    <ellipse cx="158" cy="95" rx="4.5" ry="6.5" fill="white" opacity="0.88"/>
    <path d="M119 140C123 143 133 143 137 140" stroke="#356229" stroke-width="5" stroke-linecap="round" opacity="0.75"/>
    <path d="M96 153C86 160 82 172 79 191" stroke="#68BC54" stroke-width="10" stroke-linecap="round"/>
    <path d="M160 153C170 160 174 172 177 191" stroke="#68BC54" stroke-width="10" stroke-linecap="round"/>
    <path d="M98 148C98 136 107 128 119 128H137C149 128 158 136 158 148V180C158 193 147 204 134 204H122C109 204 98 193 98 180V148Z" fill="url(#frontJersey)"/>
    <path d="M106 144C112 139 118 136 128 136C138 136 144 139 150 144" stroke="#D7ECFF" stroke-width="4" stroke-linecap="round" opacity="0.8"/>
    <path d="M113 136H143" stroke="#F4FAFF" stroke-width="7" stroke-linecap="round"/>
    <path d="M112 180H144V194C144 202 137 209 129 209H127C119 209 112 202 112 194V180Z" fill="url(#frontShorts)"/>
    <path d="M112 180H144" stroke="#C9DCF7" stroke-width="4.5" stroke-linecap="round"/>
    <path d="M128 151V176" stroke="#174B9E" stroke-width="3" opacity="0.18"/>
    <text x="128" y="173" text-anchor="middle" font-size="28" font-weight="900" font-family="Arial, sans-serif" fill="#FFFFFF" stroke="#0E4AA7" stroke-width="3">10</text>
    <path d="M120 209C116 217 113 226 112 236" stroke="#69BF55" stroke-width="10" stroke-linecap="round"/>
    <path d="M136 209C140 217 143 226 144 236" stroke="#69BF55" stroke-width="10" stroke-linecap="round"/>
    <path d="M117 209L116 226" stroke="#2562C4" stroke-width="9" stroke-linecap="round"/>
    <path d="M139 209L140 226" stroke="#2562C4" stroke-width="9" stroke-linecap="round"/>
    <ellipse cx="112" cy="238" rx="12" ry="7" fill="#111111"/>
    <ellipse cx="144" cy="238" rx="12" ry="7" fill="#111111"/>
    <ellipse cx="77" cy="195" rx="10" ry="6" fill="#68BC54"/>
    <ellipse cx="179" cy="195" rx="10" ry="6" fill="#68BC54"/>
  </g>
</svg>
