<svg width="256" height="256" viewBox="0 0 256 256" fill="none" xmlns="http://www.w3.org/2000/svg" role="img" aria-labelledby="patrol3-title patrol3-desc">
  <title id="patrol3-title">巡逻动作第三帧</title>
  <desc id="patrol3-desc">球衣版外星人巡逻第三帧，身体换到另一侧迈步。</desc>
  <defs>
    <linearGradient id="p3Head" x1="82" y1="40" x2="168" y2="188" gradientUnits="userSpaceOnUse"><stop stop-color="#D8FF8E"/><stop offset="0.54" stop-color="#88E75E"/><stop offset="1" stop-color="#489F41"/></linearGradient>
    <linearGradient id="p3Jersey" x1="92" y1="136" x2="152" y2="206" gradientUnits="userSpaceOnUse"><stop stop-color="#4AA9FF"/><stop offset="1" stop-color="#1D61C4"/></linearGradient>
    <linearGradient id="p3Shorts" x1="104" y1="182" x2="144" y2="214" gradientUnits="userSpaceOnUse"><stop stop-color="#FFFFFF"/><stop offset="1" stop-color="#DEEAFE"/></linearGradient>
    <radialGradient id="p3Shine" cx="0" cy="0" r="1" gradientUnits="userSpaceOnUse" gradientTransform="translate(104 77) rotate(24) scale(58 36)"><stop stop-color="white" stop-opacity="0.72"/><stop offset="1" stop-color="white" stop-opacity="0"/></radialGradient>
    <filter id="p3Shadow" x="24" y="18" width="208" height="226" filterUnits="userSpaceOnUse" color-interpolation-filters="sRGB"><feDropShadow dx="0" dy="8" stdDeviation="10" flood-color="#17371F" flood-opacity="0.22"/></filter>
  </defs>
  <ellipse cx="122" cy="229" rx="44" ry="11" fill="#15351E" opacity="0.14"/>
  <g filter="url(#p3Shadow)" transform="rotate(4 122 154)">
    <path d="M146 46C140 33 127 30 121 31C115 32 107 37 103 46L95 61" stroke="#6ABE4D" stroke-width="9" stroke-linecap="round"/>
    <path d="M130 43C123 37 114 37 108 45" stroke="#6ABE4D" stroke-width="9" stroke-linecap="round"/>
    <circle cx="78" cy="80" r="7" fill="#F15B5B"/><circle cx="102" cy="67" r="6" fill="#F15B5B"/>
    <path d="M154 52C133 34 97 39 80 66C64 91 70 124 92 148C104 161 109 171 111 186C113 195 118 200 124 200C132 200 136 194 138 185C140 171 147 161 158 151C180 133 188 98 174 75C169 66 162 58 154 52Z" fill="url(#p3Head)"/>
    <path d="M154 52C133 34 97 39 80 66C64 91 70 124 92 148C104 161 109 171 111 186C113 195 118 200 124 200C132 200 136 194 138 185C140 171 147 161 158 151C180 133 188 98 174 75C169 66 162 58 154 52Z" fill="url(#p3Shine)"/>
    <ellipse cx="109" cy="106" rx="16" ry="24" fill="#111111"/>
    <ellipse cx="104" cy="97" rx="4.5" ry="6.5" fill="white" opacity="0.9"/>
    <path d="M108 139C112 142 118 142 123 139" stroke="#356229" stroke-width="5" stroke-linecap="round" opacity="0.7"/>
    <path d="M92 149C92 139 100 132 110 132H123C134 132 142 140 142 151V179C142 193 131 204 117 204H110C100 204 92 196 92 186V149Z" fill="url(#p3Jersey)"/>
    <path d="M110 138H130" stroke="#F4FAFF" stroke-width="7" stroke-linecap="round"/>
    <text x="114" y="173" text-anchor="middle" font-size="24" font-weight="900" font-family="Arial, sans-serif" fill="#FFFFFF" stroke="#0E4AA7" stroke-width="3">10</text>
    <path d="M96 158C87 163 80 171 75 186" stroke="#68BC54" stroke-width="10" stroke-linecap="round"/>
    <path d="M138 157C146 163 152 173 155 188" stroke="#68BC54" stroke-width="10" stroke-linecap="round"/>
    <path d="M104 180H132V194C132 202 126 208 118 208H116C109 208 104 202 104 194V180Z" fill="url(#p3Shorts)"/>
    <path d="M108 208C102 216 96 224 89 233" stroke="#69BF55" stroke-width="10" stroke-linecap="round"/>
    <path d="M124 208C130 216 135 226 138 236" stroke="#69BF55" stroke-width="10" stroke-linecap="round"/>
    <path d="M106 208L96 224" stroke="#2562C4" stroke-width="9" stroke-linecap="round"/>
    <path d="M126 208L132 225" stroke="#2562C4" stroke-width="9" stroke-linecap="round"/>
    <ellipse cx="88" cy="236" rx="12" ry="7" fill="#111111"/>
    <ellipse cx="138" cy="238" rx="12" ry="7" fill="#111111"/>
    <ellipse cx="158" cy="192" rx="10" ry="6" fill="#68BC54"/>
  </g>
</svg>
