<svg width="96" height="96" viewBox="0 0 96 96" fill="none" xmlns="http://www.w3.org/2000/svg" role="img" aria-labelledby="title desc">
  <title id="title">定位器图标</title>
  <desc id="desc">软3D定位脉冲图标，适用于目标定位和透视辅助。</desc>
  <defs>
    <linearGradient id="pinGrad" x1="28" y1="22" x2="62" y2="75" gradientUnits="userSpaceOnUse">
      <stop stop-color="#FFE3EA"/>
      <stop offset="0.48" stop-color="#FF6D83"/>
      <stop offset="1" stop-color="#7A233E"/>
    </linearGradient>
    <radialGradient id="coreGrad" cx="0" cy="0" r="1" gradientUnits="userSpaceOnUse" gradientTransform="translate(48 40) scale(12)">
      <stop stop-color="#FFF6F9"/>
      <stop offset="1" stop-color="#FFB7C6"/>
    </radialGradient>
    <filter id="shadow" x="12" y="12" width="72" height="76" filterUnits="userSpaceOnUse" color-interpolation-filters="sRGB">
      <feDropShadow dx="0" dy="8" stdDeviation="6" flood-color="#12070D" flood-opacity="0.28"/>
    </filter>
  </defs>
  <g filter="url(#shadow)">
    <path d="M48 20C61 20 71 29 71 42C71 58 57 67 51 78C50 80 49 81 48 81C47 81 46 80 45 78C39 67 25 58 25 42C25 29 35 20 48 20Z" fill="url(#pinGrad)"/>
    <circle cx="48" cy="41" r="10" fill="url(#coreGrad)"/>
    <circle cx="48" cy="41" r="4" fill="#FF647F"/>
    <path d="M19 63C24 58 31 55 39 54" stroke="#63D7FF" stroke-width="4" stroke-linecap="round" opacity="0.8"/>
    <path d="M77 63C72 58 65 55 57 54" stroke="#63D7FF" stroke-width="4" stroke-linecap="round" opacity="0.8"/>
    <path d="M12 74C19 67 28 63 38 61" stroke="#A4EEFF" stroke-width="3" stroke-linecap="round" opacity="0.6"/>
    <path d="M84 74C77 67 68 63 58 61" stroke="#A4EEFF" stroke-width="3" stroke-linecap="round" opacity="0.6"/>
  </g>
</svg>
