<svg width="96" height="96" viewBox="0 0 96 96" fill="none" xmlns="http://www.w3.org/2000/svg" role="img" aria-labelledby="title desc">
  <title id="title">冰冻子弹图标</title>
  <desc id="desc">软3D蓝白冰冻弹图标，适用于特殊子弹道具。</desc>
  <defs>
    <linearGradient id="bulletGrad" x1="27" y1="27" x2="67" y2="67" gradientUnits="userSpaceOnUse">
      <stop stop-color="#E7FBFF"/>
      <stop offset="0.55" stop-color="#8BDEFF"/>
      <stop offset="1" stop-color="#3277B2"/>
    </linearGradient>
    <linearGradient id="shellGrad" x1="46" y1="55" x2="72" y2="71" gradientUnits="userSpaceOnUse">
      <stop stop-color="#87BFE5"/>
      <stop offset="1" stop-color="#143A62"/>
    </linearGradient>
    <filter id="shadow" x="10" y="14" width="76" height="72" filterUnits="userSpaceOnUse" color-interpolation-filters="sRGB">
      <feDropShadow dx="0" dy="8" stdDeviation="6" flood-color="#08111A" flood-opacity="0.26"/>
    </filter>
  </defs>
  <g filter="url(#shadow)">
    <path d="M31 33C31 26 36 21 43 21H49C56 21 61 26 61 33V39C61 46 56 51 49 51H43C36 51 31 46 31 39V33Z" fill="url(#bulletGrad)"/>
    <path d="M38 50H54C65 50 73 58 73 68C73 71 71 73 68 73H40C34 73 29 68 29 62C29 55 32 50 38 50Z" fill="url(#shellGrad)"/>
    <path d="M46 18L50 26" stroke="#E7FFFF" stroke-width="4" stroke-linecap="round"/>
    <path d="M34 28L41 33" stroke="#B8F2FF" stroke-width="4" stroke-linecap="round"/>
    <path d="M58 28L51 33" stroke="#B8F2FF" stroke-width="4" stroke-linecap="round"/>
    <path d="M35 15L39 22" stroke="#8EE9FF" stroke-width="3" stroke-linecap="round" opacity="0.85"/>
    <path d="M57 15L53 22" stroke="#8EE9FF" stroke-width="3" stroke-linecap="round" opacity="0.85"/>
    <path d="M37 28C41 24 45 23 50 23" stroke="white" stroke-width="3.5" stroke-linecap="round" opacity="0.7"/>
  </g>
</svg>
