<svg width="512" height="256" viewBox="0 0 512 256" fill="none" xmlns="http://www.w3.org/2000/svg" role="img" aria-labelledby="title desc">
  <title id="title">标准狙击枪</title>
  <desc id="desc">软3D卡通风格的标准灰色狙击枪，适合商店卡片展示。</desc>
  <defs>
    <linearGradient id="bodyGrad" x1="58" y1="76" x2="382" y2="176" gradientUnits="userSpaceOnUse">
      <stop stop-color="#CDD5E0"/>
      <stop offset="0.48" stop-color="#8A96A6"/>
      <stop offset="1" stop-color="#58616E"/>
    </linearGradient>
    <linearGradient id="darkGrad" x1="96" y1="106" x2="281" y2="206" gradientUnits="userSpaceOnUse">
      <stop stop-color="#4E5561"/>
      <stop offset="1" stop-color="#2B3139"/>
    </linearGradient>
    <linearGradient id="scopeGrad" x1="150" y1="58" x2="296" y2="103" gradientUnits="userSpaceOnUse">
      <stop stop-color="#E8EDF4"/>
      <stop offset="1" stop-color="#687384"/>
    </linearGradient>
    <linearGradient id="barrelGrad" x1="334" y1="98" x2="470" y2="110" gradientUnits="userSpaceOnUse">
      <stop stop-color="#A8B4C4"/>
      <stop offset="1" stop-color="#5A6472"/>
    </linearGradient>
    <radialGradient id="shine" cx="0" cy="0" r="1" gradientUnits="userSpaceOnUse" gradientTransform="translate(160 90) rotate(21) scale(114 56)">
      <stop stop-color="white" stop-opacity="0.78"/>
      <stop offset="1" stop-color="white" stop-opacity="0"/>
    </radialGradient>
    <filter id="shadow" x="24" y="38" width="464" height="180" filterUnits="userSpaceOnUse" color-interpolation-filters="sRGB">
      <feDropShadow dx="0" dy="10" stdDeviation="12" flood-color="#02070E" flood-opacity="0.26"/>
    </filter>
  </defs>
  <ellipse cx="251" cy="208" rx="168" ry="15" fill="#0D1522" opacity="0.14"/>
  <g filter="url(#shadow)">
    <path d="M74 111C74 93 89 78 107 78H297C308 78 319 82 327 89L360 117C367 123 376 126 385 126H414C431 126 444 139 444 156C444 173 431 186 414 186H389C378 186 368 190 359 197L331 220C323 226 312 229 301 229H213C193 229 175 216 170 197L159 163C155 151 145 141 133 138L95 131C83 129 74 121 74 111Z" fill="url(#bodyGrad)"/>
    <path d="M117 81H289C302 81 314 85 322 92L340 106H124C108 106 95 97 95 86C95 83 101 81 117 81Z" fill="#F7FAFF" opacity="0.46"/>
    <rect x="164" y="58" width="134" height="28" rx="14" fill="url(#scopeGrad)"/>
    <rect x="200" y="45" width="56" height="17" rx="8.5" fill="#7D8794"/>
    <rect x="188" y="86" width="18" height="22" rx="8" fill="#606B78"/>
    <rect x="257" y="86" width="18" height="22" rx="8" fill="#606B78"/>
    <path d="M336 127H481" stroke="url(#barrelGrad)" stroke-width="18" stroke-linecap="round"/>
    <path d="M430 126H481" stroke="#E9EEF7" stroke-width="6" stroke-linecap="round" opacity="0.72"/>
    <path d="M163 164L148 228" stroke="url(#darkGrad)" stroke-width="30" stroke-linecap="round"/>
    <path d="M146 228H182" stroke="#C4CED9" stroke-width="10" stroke-linecap="round" opacity="0.88"/>
    <path d="M214 132C214 120 224 110 236 110H273C287 110 298 121 298 135V152C298 167 286 179 271 179H236C224 179 214 169 214 157V132Z" fill="#3E454F" opacity="0.9"/>
    <path d="M280 145L260 206C256 220 243 229 229 229H205C191 229 181 216 185 203L194 172C197 158 209 148 223 148L280 145Z" fill="url(#darkGrad)"/>
    <path d="M126 145C126 130 138 118 153 118H215C224 118 232 122 238 128L255 146C261 152 269 155 277 155H304C316 155 326 165 326 177C326 189 316 199 304 199H285C276 199 267 202 260 208L246 219C239 225 230 229 221 229H198C185 229 173 221 169 209L162 190C159 182 152 176 144 174L130 171C127 170 126 169 126 165V145Z" fill="url(#shine)" opacity="0.55"/>
    <circle cx="246" cy="125" r="12" fill="#E94D62"/>
    <circle cx="246" cy="125" r="5" fill="#FFD8E2"/>
    <path d="M92 109C109 95 142 90 177 95" stroke="#F6FBFF" stroke-width="7" stroke-linecap="round" opacity="0.46"/>
  </g>
</svg>
