<svg width="220" height="220" viewBox="0 0 220 220" fill="none" xmlns="http://www.w3.org/2000/svg">
  <defs>
    <linearGradient id="cactusGrad" x1="60" y1="34" x2="140" y2="172" gradientUnits="userSpaceOnUse">
      <stop stop-color="#C6FF92"/>
      <stop offset="0.55" stop-color="#6ACA58"/>
      <stop offset="1" stop-color="#3A8541"/>
    </linearGradient>
    <filter id="shadow" x="28" y="20" width="164" height="188" filterUnits="userSpaceOnUse" color-interpolation-filters="sRGB">
      <feDropShadow dx="0" dy="8" stdDeviation="8" flood-color="#17311D" flood-opacity="0.2"/>
    </filter>
  </defs>

  <ellipse cx="111" cy="193" rx="42" ry="10" fill="#17311F" opacity="0.12"/>
  <g filter="url(#shadow)">
    <path d="M92 51C92 38 102 28 115 28C128 28 138 38 138 51V82C138 92 146 100 156 100C166 100 174 108 174 118V129C174 141 164 151 152 151C140 151 130 141 130 129V107C130 100 124 94 117 94H110C103 94 97 100 97 107V167C97 181 86 192 72 192C58 192 47 181 47 167V133C47 123 39 115 29 115C19 115 11 107 11 97V90C11 77 21 67 34 67C47 67 57 77 57 90V104C57 110 62 115 68 115H72C83 115 92 106 92 95V51Z" fill="url(#cactusGrad)"/>
    <path d="M74 42C88 34 109 33 126 39" stroke="#EBFFD0" stroke-width="7" stroke-linecap="round" opacity="0.5"/>
    <path d="M72 49V168" stroke="#78D06A" stroke-width="4" stroke-linecap="round" opacity="0.55"/>
    <path d="M115 40V145" stroke="#78D06A" stroke-width="4" stroke-linecap="round" opacity="0.55"/>
    <path d="M152 104V147" stroke="#78D06A" stroke-width="4" stroke-linecap="round" opacity="0.55"/>
    <circle cx="115" cy="42" r="6" fill="#F26E7B"/>
  </g>
</svg>
