<svg width="320" height="240" viewBox="0 0 320 240" fill="none" xmlns="http://www.w3.org/2000/svg">
  <defs>
    <linearGradient id="wallFront" x1="58" y1="64" x2="180" y2="194" gradientUnits="userSpaceOnUse">
      <stop stop-color="#5B6273"/>
      <stop offset="0.54" stop-color="#394255"/>
      <stop offset="1" stop-color="#1E2737"/>
    </linearGradient>
    <linearGradient id="wallSide" x1="166" y1="74" x2="262" y2="188" gradientUnits="userSpaceOnUse">
      <stop stop-color="#434C5D"/>
      <stop offset="1" stop-color="#151B28"/>
    </linearGradient>
    <linearGradient id="wallTop" x1="80" y1="50" x2="232" y2="102" gradientUnits="userSpaceOnUse">
      <stop stop-color="#8D95A7"/>
      <stop offset="1" stop-color="#495366"/>
    </linearGradient>
    <linearGradient id="beacon" x1="148" y1="124" x2="202" y2="124" gradientUnits="userSpaceOnUse">
      <stop stop-color="#FFD783"/>
      <stop offset="1" stop-color="#FFAC43"/>
    </linearGradient>
    <radialGradient id="scanGlow" cx="0" cy="0" r="1" gradientUnits="userSpaceOnUse" gradientTransform="translate(160 120) rotate(90) scale(94 132)">
      <stop stop-color="#7EE7FF" stop-opacity="0.18"/>
      <stop offset="1" stop-color="#7EE7FF" stop-opacity="0"/>
    </radialGradient>
    <filter id="shadow" x="34" y="28" width="252" height="184" filterUnits="userSpaceOnUse" color-interpolation-filters="sRGB">
      <feDropShadow dx="0" dy="18" stdDeviation="16" flood-color="#04070E" flood-opacity="0.34"/>
    </filter>
  </defs>
  <ellipse cx="164" cy="204" rx="104" ry="16" fill="#02060D" opacity="0.36"/>
  <g filter="url(#shadow)">
    <path d="M68 84C68 68 81 56 97 56H176C192 56 205 69 205 85V176C205 192 192 205 176 205H97C81 205 68 192 68 176V84Z" fill="url(#wallFront)"/>
    <path d="M176 56H224C240 56 252 68 252 84V176C252 192 240 205 224 205H176V56Z" fill="url(#wallSide)"/>
    <path d="M96 48H226C240 48 252 60 252 74V84H68V76C68 60 81 48 96 48Z" fill="url(#wallTop)"/>
    <path d="M86 90H184" stroke="#A7B1C4" stroke-width="10" stroke-linecap="round" opacity="0.34"/>
    <path d="M84 118H185" stroke="#1B2637" stroke-width="11" stroke-linecap="round" opacity="0.52"/>
    <path d="M84 148H183" stroke="#748199" stroke-width="9" stroke-linecap="round" opacity="0.26"/>
    <path d="M194 90H235" stroke="#657088" stroke-width="10" stroke-linecap="round" opacity="0.34"/>
    <path d="M193 120H236" stroke="#131B28" stroke-width="11" stroke-linecap="round" opacity="0.52"/>
    <path d="M193 150H234" stroke="#5B6980" stroke-width="9" stroke-linecap="round" opacity="0.25"/>
    <path d="M206 56V205" stroke="#0C1220" stroke-width="4" opacity="0.38"/>
    <rect x="144" y="112" width="48" height="20" rx="10" fill="url(#beacon)"/>
    <rect x="152" y="116" width="22" height="4" rx="2" fill="#FFF4CE" opacity="0.78"/>
    <path d="M116 180C131 170 146 168 161 172C173 175 187 176 202 171C214 167 227 167 238 173" stroke="#8FE2F6" stroke-width="6" stroke-linecap="round" opacity="0.34"/>
    <path d="M98 52C113 48 130 47 148 50" stroke="#DFE7F8" stroke-width="7" stroke-linecap="round" opacity="0.4"/>
    <path d="M177 52C190 48 205 48 220 51" stroke="#D9E4F6" stroke-width="7" stroke-linecap="round" opacity="0.24"/>
    <path d="M76 176C92 165 112 164 128 173" stroke="#0F1826" stroke-width="10" stroke-linecap="round" opacity="0.32"/>
    <path d="M207 176C221 166 236 165 247 171" stroke="#090E18" stroke-width="10" stroke-linecap="round" opacity="0.32"/>
    <ellipse cx="164" cy="118" rx="112" ry="86" fill="url(#scanGlow)"/>
  </g>
</svg>
