<svg width="520" height="220" viewBox="0 0 520 220" fill="none" xmlns="http://www.w3.org/2000/svg">
  <defs>
    <linearGradient id="card" x1="24" y1="20" x2="488" y2="190" gradientUnits="userSpaceOnUse">
      <stop stop-color="#122736"/>
      <stop offset="1" stop-color="#09131B"/>
    </linearGradient>
    <linearGradient id="tag" x1="353" y1="34" x2="485" y2="84" gradientUnits="userSpaceOnUse">
      <stop stop-color="#64D9FF"/>
      <stop offset="1" stop-color="#63F0A8"/>
    </linearGradient>
  </defs>
  <rect x="18" y="18" width="484" height="184" rx="28" fill="url(#card)" stroke="#31536B" stroke-width="2"/>
  <rect x="34" y="34" width="156" height="152" rx="22" fill="#10202C" stroke="#7FE5FF" stroke-opacity="0.16"/>
  <circle cx="112" cy="109" r="39" fill="#17384A"/>
  <circle cx="112" cy="109" r="24" fill="#65D8FF" fill-opacity="0.2" stroke="#91ECFF" stroke-width="4"/>
  <path d="M112 84V134" stroke="#91ECFF" stroke-width="7" stroke-linecap="round"/>
  <path d="M87 109H137" stroke="#91ECFF" stroke-width="7" stroke-linecap="round"/>
  <path d="M214 58H330" stroke="#EAF8FF" stroke-width="12" stroke-linecap="round"/>
  <path d="M214 87H298" stroke="#6F8EA4" stroke-width="8" stroke-linecap="round"/>
  <path d="M214 114H315" stroke="#4C6780" stroke-width="8" stroke-linecap="round"/>
  <rect x="353" y="34" width="132" height="50" rx="18" fill="url(#tag)"/>
  <circle cx="379" cy="59" r="10" fill="#0F6242"/>
  <path d="M375 59H383" stroke="#CFFFF0" stroke-width="4" stroke-linecap="round"/>
  <path d="M379 55V63" stroke="#CFFFF0" stroke-width="4" stroke-linecap="round"/>
  <text x="438" y="64" fill="#0F6242" font-family="Segoe UI, Arial" font-size="20" font-weight="800" text-anchor="middle">BUYABLE</text>
  <rect x="214" y="145" width="122" height="18" rx="9" fill="#203443"/>
  <rect x="214" y="145" width="86" height="18" rx="9" fill="#63D8FF"/>
  <circle cx="358" cy="154" r="11" fill="#F1B048"/>
  <path d="M352 154H364" stroke="#73470F" stroke-width="4" stroke-linecap="round"/>
  <path d="M358 148V160" stroke="#73470F" stroke-width="4" stroke-linecap="round"/>
  <path d="M379 154H447" stroke="#FFE4B6" stroke-width="7" stroke-linecap="round"/>
</svg>
