<svg width="256" height="256" viewBox="0 0 256 256" fill="none" xmlns="http://www.w3.org/2000/svg">
  <defs>
    <radialGradient id="core" cx="0" cy="0" r="1" gradientUnits="userSpaceOnUse" gradientTransform="translate(128 128) rotate(90) scale(78)">
      <stop offset="0" stop-color="#050608" stop-opacity="0.98"/>
      <stop offset="0.55" stop-color="#101317" stop-opacity="0.92"/>
      <stop offset="1" stop-color="#1D2329" stop-opacity="0"/>
    </radialGradient>
  </defs>
  <circle cx="128" cy="128" r="84" fill="url(#core)"/>
  <g stroke="#0B0D10" stroke-linecap="round" stroke-opacity="0.72">
    <path d="M128 56L128 34" stroke-width="7"/>
    <path d="M128 200L128 222" stroke-width="7"/>
    <path d="M56 128L34 128" stroke-width="7"/>
    <path d="M200 128L222 128" stroke-width="7"/>
    <path d="M79 79L59 59" stroke-width="6"/>
    <path d="M177 177L197 197" stroke-width="6"/>
    <path d="M177 79L198 58" stroke-width="6"/>
    <path d="M79 177L58 198" stroke-width="6"/>
    <path d="M95 61L88 39" stroke-width="5"/>
    <path d="M160 196L168 219" stroke-width="5"/>
    <path d="M196 96L218 88" stroke-width="5"/>
    <path d="M60 160L37 168" stroke-width="5"/>
  </g>
  <circle cx="128" cy="128" r="27" fill="#020304" fill-opacity="0.96"/>
  <circle cx="128" cy="128" r="16" fill="#000000"/>
</svg>
