<svg width="220" height="180" viewBox="0 0 220 180" fill="none" xmlns="http://www.w3.org/2000/svg">
  <defs>
    <linearGradient id="capGrad" x1="46" y1="34" x2="148" y2="116" gradientUnits="userSpaceOnUse">
      <stop stop-color="#FF8D8C"/>
      <stop offset="0.55" stop-color="#E95F65"/>
      <stop offset="1" stop-color="#B73E50"/>
    </linearGradient>
    <linearGradient id="stemGrad" x1="86" y1="91" x2="120" y2="148" gradientUnits="userSpaceOnUse">
      <stop stop-color="#FFF0C7"/>
      <stop offset="1" stop-color="#D7B885"/>
    </linearGradient>
    <filter id="shadow" x="24" y="20" width="176" height="136" filterUnits="userSpaceOnUse" color-interpolation-filters="sRGB">
      <feDropShadow dx="0" dy="8" stdDeviation="8" flood-color="#3B1C24" flood-opacity="0.2"/>
    </filter>
  </defs>

  <ellipse cx="111" cy="144" rx="45" ry="10" fill="#301A20" opacity="0.12"/>
  <g filter="url(#shadow)">
    <path d="M40 93C40 57 69 28 106 28C143 28 172 57 172 93H40Z" fill="url(#capGrad)"/>
    <path d="M58 71C82 49 117 44 149 57" stroke="#FFC3C4" stroke-width="8" stroke-linecap="round" opacity="0.55"/>
    <path d="M79 93C79 79 90 68 104 68H108C122 68 133 79 133 93V133C133 145 123 155 111 155H101C89 155 79 145 79 133V93Z" fill="url(#stemGrad)"/>
    <circle cx="81" cy="72" r="8" fill="#FFEDE7" opacity="0.9"/>
    <circle cx="113" cy="56" r="10" fill="#FFEDE7" opacity="0.85"/>
    <circle cx="139" cy="74" r="7" fill="#FFEDE7" opacity="0.75"/>
    <path d="M89 102H124" stroke="#E0C89F" stroke-width="7" stroke-linecap="round" opacity="0.65"/>
  </g>
</svg>
