<svg width="256" height="256" viewBox="0 0 256 256" fill="none" xmlns="http://www.w3.org/2000/svg" aria-labelledby="panic-soft-2-title panic-soft-2-desc" role="img">
  <title id="panic-soft-2-title">升级版惊慌动作 panic-soft-2</title>
  <desc id="panic-soft-2-desc">惊慌分镜第二帧，双臂抬高到最高点，呈现最强应激状态。</desc>
  <defs>
    <linearGradient id="headGrad" x1="72" y1="34" x2="180" y2="188" gradientUnits="userSpaceOnUse">
      <stop stop-color="#C8FF92"/>
      <stop offset="0.45" stop-color="#84DE5D"/>
      <stop offset="1" stop-color="#4A9A4C"/>
    </linearGradient>
    <linearGradient id="bodyGrad" x1="96" y1="144" x2="162" y2="226" gradientUnits="userSpaceOnUse">
      <stop stop-color="#76DFE1"/>
      <stop offset="1" stop-color="#2C8592"/>
    </linearGradient>
    <radialGradient id="shine" cx="0" cy="0" r="1" gradientUnits="userSpaceOnUse" gradientTransform="translate(108 75) rotate(55) scale(64 42)">
      <stop stop-color="white" stop-opacity="0.74"/>
      <stop offset="1" stop-color="white" stop-opacity="0"/>
    </radialGradient>
    <radialGradient id="torsoGlow" cx="0" cy="0" r="1" gradientUnits="userSpaceOnUse" gradientTransform="translate(126 156) rotate(90) scale(54 39)">
      <stop stop-color="white" stop-opacity="0.18"/>
      <stop offset="1" stop-color="white" stop-opacity="0"/>
    </radialGradient>
    <filter id="shadow" x="16" y="12" width="224" height="238" filterUnits="userSpaceOnUse" color-interpolation-filters="sRGB">
      <feDropShadow dx="0" dy="8" stdDeviation="10" flood-color="#17361F" flood-opacity="0.22"/>
    </filter>
  </defs>

  <ellipse cx="128" cy="232" rx="48" ry="12" fill="#1E3D2C" opacity="0.14"/>

  <g filter="url(#shadow)" transform="translate(0 0) rotate(0 128 156)">
    <g transform="rotate(0 128 112)">
      <path d="M110 43C117 24 139 24 146 43L151 59" stroke="#64BC5B" stroke-width="10" stroke-linecap="round"/>
      <path d="M146 43C154 24 176 27 184 47L190 64" stroke="#64BC5B" stroke-width="10" stroke-linecap="round"/>
      <circle cx="97" cy="90" r="6" fill="#EE6561"/>
      <circle cx="160" cy="90" r="6" fill="#EE6561"/>
      <path d="M128 36C170 36 197 69 190 110C185 139 162 151 149 169C141 179 136 195 128 195C120 195 115 179 107 169C94 151 71 139 66 110C59 69 86 36 128 36Z" fill="url(#headGrad)"/>
      <path d="M88 84C100 59 133 48 161 60" stroke="#E5FFC4" stroke-width="8" stroke-linecap="round" opacity="0.58"/>
      <path d="M128 36C170 36 197 69 190 110C185 139 162 151 149 169C141 179 136 195 128 195C120 195 115 179 107 169C94 151 71 139 66 110C59 69 86 36 128 36Z" fill="url(#shine)"/>
      <ellipse cx="102" cy="109" rx="18" ry="27" fill="#151515"/>
      <ellipse cx="154" cy="109" rx="18" ry="27" fill="#151515"/>
      <ellipse cx="108" cy="98" rx="5" ry="7" fill="white" opacity="0.9"/>
      <ellipse cx="160" cy="98" rx="5" ry="7" fill="white" opacity="0.9"/>
      <path d="M117 144C123 151 132 153 141 147" stroke="#2E6637" stroke-width="5" stroke-linecap="round" opacity="0.76"/>
    </g>

    <path d="M97 150C97 138 106 128 118 128H138C150 128 159 138 159 150V178C159 193 147 205 132 205H124C109 205 97 193 97 178V150Z" fill="url(#bodyGrad)"/>
    <path d="M102 151C106 142 116 136 128 136C140 136 150 142 154 151V176C154 188 145 198 132 199H124C111 198 102 188 102 176V151Z" fill="url(#torsoGlow)"/>
    <path d="M114 142C118 138 122 136 128 136C134 136 138 138 142 142" stroke="#E9FEFF" stroke-width="3.5" stroke-linecap="round" opacity="0.88"/>
    <path d="M116 154C120 151 123 150 128 150C133 150 136 151 140 154" stroke="#C9F8FA" stroke-width="3.2" stroke-linecap="round" opacity="0.62"/>
    <path d="M118 167C121 164 124 163 128 163C132 163 135 164 138 167" stroke="#FFF0A5" stroke-width="3" stroke-linecap="round" opacity="0.38"/>
    <path d="M97 154C79 143 64 132 55 118" stroke="#69BF63" stroke-width="10" stroke-linecap="round"/>
    <path d="M159 154C177 143 193 132 202 118" stroke="#6DC464" stroke-width="10" stroke-linecap="round"/>
    <path d="M120 205C112 215 105 224 99 235" stroke="#69BF63" stroke-width="10" stroke-linecap="round"/>
    <path d="M136 205C145 214 152 224 157 235" stroke="#6DC464" stroke-width="10" stroke-linecap="round"/>
    <ellipse cx="97" cy="237" rx="12" ry="7" fill="#69BF63"/>
    <ellipse cx="159" cy="237" rx="12" ry="7" fill="#6DC464"/>
  </g>
</svg>
