<svg width="256" height="256" viewBox="0 0 256 256" fill="none" xmlns="http://www.w3.org/2000/svg" role="img" aria-labelledby="weakpoint-soft-3-title weakpoint-soft-3-desc">
  <title id="weakpoint-soft-3-title">弱点显露序列第三帧</title>
  <desc id="weakpoint-soft-3-desc">升级版软3D卡通外星人，身体表层短暂张开并显露强烈发光弱点，形成清晰的可攻击窗口。</desc>
  <defs>
    <linearGradient id="wp3HeadGrad" x1="72" y1="36" x2="185" y2="190" gradientUnits="userSpaceOnUse">
      <stop stop-color="#CBFF99"/>
      <stop offset="0.48" stop-color="#84DE5E"/>
      <stop offset="1" stop-color="#479C4C"/>
    </linearGradient>
    <linearGradient id="wp3BodyGrad" x1="98" y1="136" x2="164" y2="206" gradientUnits="userSpaceOnUse">
      <stop stop-color="#7BE4E6"/>
      <stop offset="1" stop-color="#2A8592"/>
    </linearGradient>
    <linearGradient id="wp3SplitGrad" x1="108" y1="142" x2="147" y2="187" gradientUnits="userSpaceOnUse">
      <stop stop-color="#54B2BC"/>
      <stop offset="1" stop-color="#2A6E78"/>
    </linearGradient>
    <radialGradient id="wp3CoreGrad" cx="0" cy="0" r="1" gradientUnits="userSpaceOnUse" gradientTransform="translate(128 168) rotate(90) scale(24 22)">
      <stop stop-color="#FFFDE0"/>
      <stop offset="0.38" stop-color="#FFF09C"/>
      <stop offset="0.72" stop-color="#FFD14A"/>
      <stop offset="1" stop-color="#F08B22"/>
    </radialGradient>
    <radialGradient id="wp3Halo" cx="0" cy="0" r="1" gradientUnits="userSpaceOnUse" gradientTransform="translate(128 169) rotate(90) scale(44 36)">
      <stop stop-color="#FFF9D0" stop-opacity="0.95"/>
      <stop offset="0.55" stop-color="#FFD95E" stop-opacity="0.4"/>
      <stop offset="1" stop-color="#FFD95E" stop-opacity="0"/>
    </radialGradient>
    <radialGradient id="wp3Shine" cx="0" cy="0" r="1" gradientUnits="userSpaceOnUse" gradientTransform="translate(108 76) rotate(46) scale(62 42)">
      <stop stop-color="white" stop-opacity="0.72"/>
      <stop offset="1" stop-color="white" stop-opacity="0"/>
    </radialGradient>
    <filter id="wp3Shadow" x="18" y="14" width="220" height="232" filterUnits="userSpaceOnUse" color-interpolation-filters="sRGB">
      <feDropShadow dx="0" dy="8" stdDeviation="10" flood-color="#16351E" flood-opacity="0.22"/>
    </filter>
  </defs>

  <ellipse cx="128" cy="228" rx="48" ry="12" fill="#1E3D2C" opacity="0.14"/>

  <g filter="url(#wp3Shadow)">
    <path d="M110 43C117 25 139 25 146 43L152 60C154 67 159 73 166 77L171 80C176 83 178 90 175 95C172 100 165 103 158 101L149 98" stroke="#62B95B" stroke-width="10" stroke-linecap="round"/>
    <path d="M146 43C139 25 117 25 110 43L104 60C102 67 97 73 90 77L85 80C80 83 78 90 81 95C84 100 91 103 98 101L107 98" stroke="#62B95B" stroke-width="10" stroke-linecap="round"/>
    <circle cx="176" cy="84" r="7" fill="#EE635D"/>
    <circle cx="80" cy="84" r="7" fill="#EE635D"/>

    <path d="M128 34C170 34 198 69 191 109C186 138 163 151 149 168C141 177 135 194 128 194C121 194 115 177 107 168C93 151 70 138 65 109C58 69 86 34 128 34Z" fill="url(#wp3HeadGrad)"/>
    <path d="M88 82C101 59 134 48 162 60" stroke="#E3FFC1" stroke-width="8" stroke-linecap="round" opacity="0.55"/>
    <path d="M128 34C170 34 198 69 191 109C186 138 163 151 149 168C141 177 135 194 128 194C121 194 115 177 107 168C93 151 70 138 65 109C58 69 86 34 128 34Z" fill="url(#wp3Shine)"/>

    <ellipse cx="103" cy="109" rx="18" ry="26" fill="#151515"/>
    <ellipse cx="153" cy="109" rx="18" ry="26" fill="#151515"/>
    <ellipse cx="109" cy="99" rx="5" ry="7" fill="white" opacity="0.9"/>
    <ellipse cx="159" cy="99" rx="5" ry="7" fill="white" opacity="0.9"/>
    <path d="M116 143C122 150 134 150 141 143" stroke="#2F6638" stroke-width="5" stroke-linecap="round" opacity="0.68"/>

    <path d="M97 150C97 138 106 128 118 128H138C150 128 159 138 159 150V178C159 193 147 205 132 205H124C109 205 97 193 97 178V150Z" fill="url(#wp3BodyGrad)"/>
    <path d="M114 143C119 139 123 138 128 138C133 138 137 139 142 143" stroke="#EAFEFF" stroke-width="3.5" stroke-linecap="round" opacity="0.84"/>
    <ellipse cx="128" cy="169" rx="34" ry="30" fill="url(#wp3Halo)"/>
    <path d="M111 149C117 155 121 163 122 171C121 177 117 183 111 189" stroke="url(#wp3SplitGrad)" stroke-width="7" stroke-linecap="round" opacity="0.96"/>
    <path d="M145 149C139 155 135 163 134 171C135 177 139 183 145 189" stroke="url(#wp3SplitGrad)" stroke-width="7" stroke-linecap="round" opacity="0.96"/>
    <path d="M121 152C121 147 124 144 128 144C132 144 135 147 135 152V184C135 189 132 192 128 192C124 192 121 189 121 184V152Z" fill="url(#wp3CoreGrad)"/>
    <path d="M117 147C121 154 122 160 122 167" stroke="#A6F0F4" stroke-width="4" stroke-linecap="round"/>
    <path d="M139 147C135 154 134 160 134 167" stroke="#A6F0F4" stroke-width="4" stroke-linecap="round"/>
    <path d="M121 161H135" stroke="#FFF8C7" stroke-width="4" stroke-linecap="round"/>
    <path d="M122 173L128 165L134 173" stroke="#FFF8C7" stroke-width="4" stroke-linecap="round" stroke-linejoin="round"/>
    <path d="M122 182H134" stroke="#FFF8C7" stroke-width="4" stroke-linecap="round"/>
    <circle cx="128" cy="160" r="3" fill="white" opacity="0.92"/>

    <path d="M95 152C83 160 78 173 76 193" stroke="#6ABF64" stroke-width="10" stroke-linecap="round"/>
    <path d="M161 152C173 160 178 173 180 193" stroke="#6ABF64" stroke-width="10" stroke-linecap="round"/>
    <path d="M117 205C111 214 108 225 107 236" stroke="#6ABF64" stroke-width="10" stroke-linecap="round"/>
    <path d="M139 205C145 214 148 225 149 236" stroke="#6ABF64" stroke-width="10" stroke-linecap="round"/>
    <ellipse cx="73" cy="197" rx="10" ry="6" fill="#6ABF64"/>
    <ellipse cx="183" cy="197" rx="10" ry="6" fill="#6ABF64"/>
    <ellipse cx="104" cy="238" rx="12" ry="7" fill="#6ABF64"/>
    <ellipse cx="152" cy="238" rx="12" ry="7" fill="#6ABF64"/>
  </g>
</svg>
